#!OML:ASF F:\twosubjects\two\wednesday\Session 1\rory1.ASF
:FULLY-SPECIFIED
:DEGREES
83
root -0.163136 18.488 13.7539 -171.05 -13.7185 -185.941
lowerback -0.448735 -1.92545 -8.56116
upperback 0.0112134 -2.53432 0.807321
thorax 0.671849 -1.30224 5.60796
lowerneck -7.47939 -8.87899 -9.36041
upperneck 23.8135 -15.241 8.58668
head 10.1755 -7.70221 2.64037
rclavicle -6.41081e-015 -5.1684e-015
rhumerus -19.7272 -43.5435 -67.4282
rradius 51.6289
rwrist -34.2155
rhand -45.8932 55.2431
rfingers 7.12502
rthumb -18.643 26.1164
lclavicle -6.41081e-015 -5.1684e-015
lhumerus -22.3221 -5.43963 86.8515
lradius 49.7675
lwrist 11.0842
lhand -24.0938 13.3095
lfingers 7.12502
lthumb 2.38678 43.2759
rfemur -31.0407 10.5587 6.75197
rtibia 18.9351
rfoot -9.86678 -19.1669
rtoes 0.942666
lfemur 4.62185 -1.8168 -30.886
ltibia 13.6074
lfoot -11.5145 -5.75373
ltoes -9.63863
84
root -0.180905 18.4728 13.5726 -170.799 -13.9741 -186.092
lowerback -1.49298 -2.0275 -8.80632
upperback 0.6665 -2.54103 0.959151
thorax 1.96217 -1.38712 5.85294
lowerneck -7.8895 -9.1327 -9.52275
upperneck 23.0474 -15.3642 8.941
head 10.0371 -7.67648 2.75995
rclavicle 1.60022e-014 -1.23246e-014
rhumerus -17.704 -43.9218 -69.0764
rradius 51.0161
rwrist -34.3544
rhand -45.5839 54.4925
rfingers 7.12502
rthumb -18.3454 25.3376
lclavicle 1.60022e-014 -1.23246e-014
lhumerus -20.9719 -5.52502 86.9998
lradius 50.0625
lwrist 11.2881
lhand -24.2003 14.119
lfingers 7.12502
lthumb 2.28393 44.0865
rfemur -31.375 11.6346 6.10892
rtibia 18.0312
rfoot -11.5523 -20.0231
rtoes 2.60416
lfemur 5.49868 -1.89269 -30.8743
ltibia 12.6743
lfoot -10.7528 -5.96707
ltoes -8.56446
85
root -0.19822 18.464 13.392 -170.719 -14.2849 -186.243
lowerback -1.63906 -2.06082 -8.87719
upperback 1.17314 -2.55527 1.08003
thorax 2.58602 -1.44363 6.00346
lowerneck -9.23113 -9.51133 -9.53352
upperneck 23.0186 -15.6133 8.84861
head 10.3043 -7.69588 2.6218
rclavicle 9.34288e-015 1.90833e-014
rhumerus -15.8812 -43.8555 -70.6883
rradius 50.5519
rwrist -35.2251
rhand -45.3364 55.3695
rfingers 7.12502
rthumb -18.1074 26.1923
lclavicle 9.34288e-015 1.90833e-014
lhumerus -19.8459 -5.73139 87.1687
lradius 50.3447
lwrist 11.4845
lhand -24.7581 15.008
lfingers 7.12502
lthumb 1.74523 44.9806
rfemur -31.4427 11.9674 5.88423
rtibia 17.3386
rfoot -12.8053 -20.383
rtoes 1.82133
lfemur 6.3908 -2.07294 -30.8446
ltibia 12.062
lfoot -10.2793 -6.1058
ltoes -7.03837
86
root -0.214866 18.4478 13.2101 -170.734 -14.5563 -186.206
lowerback -1.41083 -2.03631 -8.88705
upperback 0.352595 -2.57073 1.16493
thorax 1.60699 -1.37578 6.12383
lowerneck -5.98186 -9.25351 -9.78025
upperneck 21.9831 -15.5565 9.00813
head 9.34915 -7.87173 2.91592
rclavicle -1.46107e-014 3.97569e-015
rhumerus -17.9818 -42.775 -69.7594
rradius 50.4507
rwrist -36.4844
rhand -44.5739 54.6237
rfingers 7.12502
rthumb -17.3736 25.3802
lclavicle -1.46107e-014 3.97569e-015
lhumerus -21.6113 -6.0777 87.5107
lradius 50.8063
lwrist 11.5006
lhand -25.5145 15.1213
lfingers 7.12502
lthumb 1.01463 45.0987
rfemur -31.4395 12.227 6.00456
rtibia 16.9167
rfoot -13.5051 -20.6937
rtoes 1.81613
lfemur 7.2719 -2.27386 -30.6343
ltibia 11.6515
lfoot -9.9227 -6.18206
ltoes -5.91048
87
root -0.232925 18.4292 13.0244 -170.702 -14.7255 -186.216
lowerback -0.880187 -2.00826 -8.68898
upperback -0.128991 -2.60605 1.13761
thorax 0.801747 -1.33892 6.01199
lowerneck -4.93781 -9.21516 -9.77112
upperneck 21.6853 -15.6191 9.0011
head 9.05678 -7.96657 2.96703
rclavicle 5.76476e-015 7.15625e-015
rhumerus -18.8548 -41.7341 -69.9656
rradius 50.27
rwrist -36.1153
rhand -44.0215 51.1734
rfingers 7.12502
rthumb -16.8419 21.8837
lclavicle 5.76476e-015 7.15625e-015
lhumerus -22.3436 -6.19848 87.5369
lradius 51.0271
lwrist 11.4473
lhand -25.9146 15.3345
lfingers 7.12502
lthumb 0.628255 45.3133
rfemur -31.3921 12.1713 6.26773
rtibia 16.6879
rfoot -13.505 -20.7209
rtoes 2.20266
lfemur 7.94996 -2.28404 -30.4685
ltibia 11.4893
lfoot -9.6464 -6.3591
ltoes -8.29715
88
root -0.249257 18.4072 12.838 -170.831 -14.7504 -186.145
lowerback -0.343069 -1.92795 -8.37227
upperback 0.0155173 -2.54394 1.1578
thorax 0.626833 -1.30345 5.87256
lowerneck -5.89362 -9.52231 -9.74839
upperneck 21.939 -15.951 8.95061
head 9.35274 -8.06224 2.8425
rclavicle 5.23798e-014 6.36111e-015
rhumerus -18.3301 -40.3414 -71.2253
rradius 50.2524
rwrist -35.9754
rhand -45.2849 50.6353
rfingers 7.12502
rthumb -18.0578 21.4536
lclavicle 5.23798e-014 6.36111e-015
lhumerus -21.9237 -6.44378 87.4953
lradius 51.1945
lwrist 11.6897
lhand -25.2452 15.1483
lfingers 7.12502
lthumb 1.27479 45.1242
rfemur -31.1112 11.4124 7.07375
rtibia 16.6166
rfoot -12.7581 -20.0896
rtoes 0.815872
lfemur 8.60296 -2.12151 -30.2338
ltibia 11.5831
lfoot -9.36766 -6.61369
ltoes -11.5782
